<svg width="326" height="80" viewBox="0 0 326 80" fill="none" xmlns="http://www.w3.org/2000/svg">
<path d="M4.88426 0.444444L18.0556 26L31.1825 0.444444H35.9721V35.1111H30.1625V15.2L19.9625 35.1111H16.1043L5.90426 15.2V35.1111H0.0946985V0.444444H4.88426Z" fill="white"/>
<path d="M63.493 35.5556C53.6922 35.5556 45.9756 27.7333 45.9756 17.7778C45.9756 7.86667 53.7365 0 63.493 0C73.2496 0 80.9661 7.86667 80.9661 17.7778C80.9661 27.6889 73.2496 35.5556 63.493 35.5556ZM63.493 29.7778C70.0565 29.7778 75.1122 24.5778 75.1122 17.7778C75.1122 11.0222 70.0565 5.77778 63.493 5.77778C56.8852 5.77778 51.8296 10.9778 51.8296 17.7778C51.8296 24.5778 56.8852 29.7778 63.493 29.7778Z" fill="white"/>
<path d="M94.9138 0.444444L108.085 26L121.212 0.444444H126.002V35.1111H120.192V15.2L109.992 35.1111H106.134L95.9338 15.2V35.1111H90.1243V0.444444H94.9138Z" fill="white"/>
<path d="M161.727 29.3333V35.1111H136.005V0.444444H161.727V6.22222H141.859V14.8H160.397V20.5778H141.859V29.3333H161.727Z" fill="white"/>
<path d="M177.606 11.5111V35.1111H171.752V0.444444H176.32L195.123 24.0444V0.444444H200.977V35.1111H196.409L177.606 11.5111Z" fill="white"/>
<path d="M229.101 6.22222V35.1111H223.158V6.22222H211.007V0.444444H241.252V6.22222H229.101Z" fill="white"/>
<path d="M265.671 35.5556C257.156 35.5556 251.258 29.2 251.258 20V0.444444H257.112V20C257.112 26 260.393 29.7333 265.671 29.7333C270.948 29.7333 274.23 26 274.23 20V0.444444H280.084V20C280.084 29.2 274.185 35.5556 265.671 35.5556Z" fill="white"/>
<path d="M294.912 0.444444L308.083 26L321.21 0.444444H326V35.1111H320.19V15.2L309.99 35.1111H306.132L295.932 15.2V35.1111H290.123V0.444444H294.912Z" fill="white"/>
<path d="M14.286 80C5.72687 80 -0.215736 74.5333 0.00600298 66.7556L6.25905 65.2889C4.92861 70.4889 8.38774 74.2222 14.3304 74.2222C18.6321 74.2222 21.0712 72.4 21.0712 69.3778C21.0712 67.2 20.3173 66.4889 16.8138 65.7333L9.62948 64C4.1747 62.6222 1.29209 59.5111 1.29209 54.8444C1.29209 48.7556 6.34774 44.4444 13.4877 44.4444C21.0269 44.4444 26.3486 49.2444 26.6147 56.3111L20.8495 58.3111C21.2043 53.2444 18.4104 50.2222 13.4434 50.2222C9.62948 50.2222 7.2347 52.0444 7.2347 54.8444C7.2347 56.8 8.2547 57.6889 11.3147 58.3111L17.8782 59.9556C21.426 60.8 26.9695 62.6667 26.9695 69.3333C26.9695 75.6889 21.8251 80 14.286 80Z" fill="white"/>
<path d="M42.8647 64.9778V79.5555H37.0108V44.8889H42.8647V59.2H59.4952V44.8889H65.3491V79.5555H59.4952V64.9778H42.8647Z" fill="white"/>
<path d="M81.21 44.8889V79.5555H75.3561V44.8889H81.21Z" fill="white"/>
<path d="M97.0782 65.0222V79.5555H91.2243V44.8889H116.503V50.6667H97.0782V59.2444H115.172V65.0222H97.0782Z" fill="white"/>
<path d="M144.632 50.6667V79.5555H138.689V50.6667H126.538V44.8889H156.783V50.6667H144.632Z" fill="white"/>
</svg>
