<svg width="523" height="36" viewBox="0 0 523 36" fill="none" xmlns="http://www.w3.org/2000/svg">
<path d="M4.78957 0.444444L17.9609 26L31.0878 0.444444H35.8774V35.1111H30.0678V15.2L19.8678 35.1111H16.0096L5.80957 15.2V35.1111H0V0.444444H4.78957Z" fill="white"/>
<path d="M63.3983 35.5556C53.5975 35.5556 45.8809 27.7333 45.8809 17.7778C45.8809 7.86667 53.6418 0 63.3983 0C73.1549 0 80.8714 7.86667 80.8714 17.7778C80.8714 27.6889 73.1549 35.5556 63.3983 35.5556ZM63.3983 29.7778C69.9618 29.7778 75.0175 24.5778 75.0175 17.7778C75.0175 11.0222 69.9618 5.77778 63.3983 5.77778C56.7905 5.77778 51.7349 10.9778 51.7349 17.7778C51.7349 24.5778 56.7905 29.7778 63.3983 29.7778Z" fill="white"/>
<path d="M94.8191 0.444444L107.99 26L121.117 0.444444H125.907V35.1111H120.097V15.2L109.897 35.1111H106.039L95.8391 15.2V35.1111H90.0296V0.444444H94.8191Z" fill="white"/>
<path d="M161.632 29.3333V35.1111H135.911V0.444444H161.632V6.22222H141.764V14.8H160.302V20.5778H141.764V29.3333H161.632Z" fill="white"/>
<path d="M177.511 11.5111V35.1111H171.657V0.444444H176.225L195.029 24.0444V0.444444H200.883V35.1111H196.315L177.511 11.5111Z" fill="white"/>
<path d="M229.006 6.22222V35.1111H223.063V6.22222H210.912V0.444444H241.157V6.22222H229.006Z" fill="white"/>
<path d="M265.576 35.5556C257.061 35.5556 251.163 29.2 251.163 20V0.444444H257.017V20C257.017 26 260.299 29.7333 265.576 29.7333C270.853 29.7333 274.135 26 274.135 20V0.444444H279.989V20C279.989 29.2 274.091 35.5556 265.576 35.5556Z" fill="white"/>
<path d="M294.817 0.444444L307.989 26L321.116 0.444444H325.905V35.1111H320.096V15.2L309.896 35.1111H306.037L295.837 15.2V35.1111H290.028V0.444444H294.817Z" fill="white"/>
<path d="M380.191 35.5556C371.632 35.5556 365.69 30.0889 365.911 22.3111L372.164 20.8444C370.834 26.0444 374.293 29.7778 380.236 29.7778C384.537 29.7778 386.976 27.9556 386.976 24.9333C386.976 22.7556 386.223 22.0444 382.719 21.2889L375.535 19.5556C370.08 18.1778 367.197 15.0667 367.197 10.4C367.197 4.31111 372.253 0 379.393 0C386.932 0 392.254 4.8 392.52 11.8667L386.755 13.8667C387.11 8.8 384.316 5.77777 379.349 5.77777C375.535 5.77777 373.14 7.6 373.14 10.4C373.14 12.3556 374.16 13.2444 377.22 13.8667L383.783 15.5111C387.331 16.3556 392.875 18.2222 392.875 24.8889C392.875 31.2444 387.73 35.5556 380.191 35.5556Z" fill="white"/>
<path d="M408.77 20.5333V35.1111H402.916V0.444447H408.77V14.7556H425.4V0.444447H431.254V35.1111H425.4V20.5333H408.77Z" fill="white"/>
<path d="M447.115 0.444447V35.1111H441.261V0.444447H447.115Z" fill="white"/>
<path d="M462.983 20.5778V35.1111H457.13V0.444447H482.408V6.22223H462.983V14.8H481.077V20.5778H462.983Z" fill="white"/>
<path d="M510.537 6.22223V35.1111H504.595V6.22223H492.443V0.444447H522.688V6.22223H510.537Z" fill="white"/>
</svg>
