<svg width="184" height="40" viewBox="0 0 184 40" fill="none" xmlns="http://www.w3.org/2000/svg">
<path d="M9.34107 38.5352C8.40363 39.4731 7.13191 40 5.80585 40V40C1.35342 40 -0.876956 34.6174 2.27058 31.4682L32.2584 1.46496C33.1959 0.526989 34.4677 0 35.7939 0V0C40.2466 0 42.4771 5.38299 39.3293 8.53228L9.34107 38.5352Z" fill="#8EE000"/>
<path d="M30.9978 30C33.7592 30 35.9978 32.2386 35.9978 35C35.9978 37.7614 33.7592 40 30.9978 40C28.2364 40 25.9978 37.7614 25.9978 35C25.9978 32.2386 28.2364 30 30.9978 30Z" fill="#8EE000"/>
<path d="M54.7563 8.24673L60.0248 18.4467L65.2756 8.24673H67.1914V22.0833H64.8676V14.1361L60.7876 22.0833H59.2443L55.1643 14.1361V22.0833H52.8405V8.24673H54.7563Z" fill="white"/>
<path d="M78.1998 22.2606C74.2795 22.2606 71.1929 19.1386 71.1929 15.165C71.1929 11.2092 74.2972 8.06934 78.1998 8.06934C82.1024 8.06934 85.189 11.2092 85.189 15.165C85.189 19.1208 82.1024 22.2606 78.1998 22.2606ZM78.1998 19.9546C80.8252 19.9546 82.8475 17.8791 82.8475 15.165C82.8475 12.4686 80.8252 10.3754 78.1998 10.3754C75.5567 10.3754 73.5344 12.4509 73.5344 15.165C73.5344 17.8791 75.5567 19.9546 78.1998 19.9546Z" fill="white"/>
<path d="M90.7681 8.24673L96.0367 18.4467L101.287 8.24673H103.203V22.0833H100.879V14.1361L96.7994 22.0833H95.2561L91.1761 14.1361V22.0833H88.8523V8.24673H90.7681Z" fill="white"/>
<path d="M117.493 19.7772V22.0833H107.205V8.24673H117.493V10.5528H109.546V13.9765H116.961V16.2826H109.546V19.7772H117.493Z" fill="white"/>
<path d="M123.845 12.6638V22.0833H121.503V8.24673H123.331L130.852 17.6662V8.24673H133.193V22.0833H131.366L123.845 12.6638Z" fill="white"/>
<path d="M144.443 10.5528V22.0833H142.066V10.5528H137.205V8.24673H149.303V10.5528H144.443Z" fill="white"/>
<path d="M159.071 22.2606C155.665 22.2606 153.306 19.7239 153.306 16.0519V8.24673H155.647V16.0519C155.647 18.4467 156.96 19.9368 159.071 19.9368C161.182 19.9368 162.495 18.4467 162.495 16.0519V8.24673H164.836V16.0519C164.836 19.7239 162.477 22.2606 159.071 22.2606Z" fill="white"/>
<path d="M170.767 8.24673L176.036 18.4467L181.287 8.24673H183.203V22.0833H180.879V14.1361L176.799 22.0833H175.255L171.175 14.1361V22.0833H168.852V8.24673H170.767Z" fill="white"/>
<path d="M58.517 39.9998C55.0934 39.9998 52.7163 37.8179 52.805 34.7135L55.3062 34.1281C54.7741 36.2036 56.1577 37.6937 58.5348 37.6937C60.2554 37.6937 61.2311 36.9664 61.2311 35.7601C61.2311 34.8909 60.9295 34.6071 59.5281 34.3055L56.6544 33.6137C54.4725 33.0638 53.3194 31.822 53.3194 29.9594C53.3194 27.5292 55.3417 25.8085 58.1977 25.8085C61.2134 25.8085 63.3421 27.7243 63.4485 30.5448L61.1424 31.3431C61.2843 29.3208 60.1668 28.1146 58.18 28.1146C56.6544 28.1146 55.6965 28.8419 55.6965 29.9594C55.6965 30.7399 56.1045 31.0947 57.3285 31.3431L59.9539 31.9994C61.373 32.3365 63.5904 33.0815 63.5904 35.7424C63.5904 38.2791 61.5327 39.9998 58.517 39.9998Z" fill="white"/>
<path d="M69.9485 34.0039V39.8224H67.6069V25.9859H69.9485V31.6979H76.6007V25.9859H78.9422V39.8224H76.6007V34.0039H69.9485Z" fill="white"/>
<path d="M85.2866 25.9859V39.8224H82.945V25.9859H85.2866Z" fill="white"/>
<path d="M91.6339 34.0217V39.8224H89.2923V25.9859H99.4036V28.2919H91.6339V31.7156H98.8715V34.0217H91.6339Z" fill="white"/>
<path d="M110.655 28.2919V39.8224H108.278V28.2919H103.418V25.9859H115.516V28.2919H110.655Z" fill="white"/>
</svg>
