<svg width="183" height="40" viewBox="0 0 183 40" fill="none" xmlns="http://www.w3.org/2000/svg">
<path d="M8.54405 38.5351C7.60656 39.473 6.33477 40 5.00864 40V40C0.555934 40 -1.67455 34.617 1.47322 31.4677L31.4613 1.46492C32.3988 0.526975 33.6706 0 34.9968 0V0C39.4495 0 41.6799 5.383 38.5322 8.5323L8.54405 38.5351Z" fill="#212A3E"/>
<path d="M30.2003 30C32.9617 30 35.2003 32.2386 35.2003 35C35.2003 37.7614 32.9617 40 30.2003 40C27.4389 40 25.2003 37.7614 25.2003 35C25.2003 32.2386 27.4389 30 30.2003 30Z" fill="#212A3E"/>
<path d="M53.9591 8.24673L59.2276 18.4467L64.4784 8.24673H66.3942V22.0833H64.0704V14.1361L59.9904 22.0833H58.4471L54.3671 14.1361V22.0833H52.0433V8.24673H53.9591Z" fill="#212A3E"/>
<path d="M77.4026 22.2606C73.4822 22.2606 70.3956 19.1386 70.3956 15.165C70.3956 11.2092 73.5 8.06934 77.4026 8.06934C81.3052 8.06934 84.3918 11.2092 84.3918 15.165C84.3918 19.1208 81.3052 22.2606 77.4026 22.2606ZM77.4026 19.9546C80.028 19.9546 82.0502 17.8791 82.0502 15.165C82.0502 12.4686 80.028 10.3754 77.4026 10.3754C74.7595 10.3754 72.7372 12.4509 72.7372 15.165C72.7372 17.8791 74.7595 19.9546 77.4026 19.9546Z" fill="#212A3E"/>
<path d="M89.9709 8.24673L95.2394 18.4467L100.49 8.24673H102.406V22.0833H100.082V14.1361L96.0022 22.0833H94.4589L90.3789 14.1361V22.0833H88.0551V8.24673H89.9709Z" fill="#212A3E"/>
<path d="M116.696 19.7772V22.0833H106.407V8.24673H116.696V10.5528H108.749V13.9765H116.164V16.2826H108.749V19.7772H116.696Z" fill="#212A3E"/>
<path d="M123.048 12.6638V22.0833H120.706V8.24673H122.533L130.055 17.6662V8.24673H132.396V22.0833H130.569L123.048 12.6638Z" fill="#212A3E"/>
<path d="M143.646 10.5528V22.0833H141.269V10.5528H136.408V8.24673H148.506V10.5528H143.646Z" fill="#212A3E"/>
<path d="M158.274 22.2606C154.868 22.2606 152.508 19.7239 152.508 16.0519V8.24673H154.85V16.0519C154.85 18.4467 156.163 19.9368 158.274 19.9368C160.385 19.9368 161.697 18.4467 161.697 16.0519V8.24673H164.039V16.0519C164.039 19.7239 161.68 22.2606 158.274 22.2606Z" fill="#212A3E"/>
<path d="M169.97 8.24673L175.239 18.4467L180.49 8.24673H182.405V22.0833H180.082V14.1361L176.002 22.0833H174.458L170.378 14.1361V22.0833H168.054V8.24673H169.97Z" fill="#212A3E"/>
<path d="M57.7198 39.9998C54.2961 39.9998 51.9191 37.8179 52.0078 34.7135L54.509 34.1281C53.9768 36.2036 55.3605 37.6937 57.7375 37.6937C59.4582 37.6937 60.4339 36.9664 60.4339 35.7601C60.4339 34.8909 60.1323 34.6071 58.7309 34.3055L55.8572 33.6137C53.6753 33.0638 52.5222 31.822 52.5222 29.9594C52.5222 27.5292 54.5445 25.8085 57.4005 25.8085C60.4161 25.8085 62.5448 27.7243 62.6513 30.5448L60.3452 31.3431C60.4871 29.3208 59.3695 28.1146 57.3827 28.1146C55.8572 28.1146 54.8993 28.8419 54.8993 29.9594C54.8993 30.7399 55.3073 31.0947 56.5313 31.3431L59.1566 31.9994C60.5758 32.3365 62.7932 33.0815 62.7932 35.7424C62.7932 38.2791 60.7354 39.9998 57.7198 39.9998Z" fill="#212A3E"/>
<path d="M69.1513 34.0039V39.8224H66.8097V25.9859H69.1513V31.6979H75.8034V25.9859H78.145V39.8224H75.8034V34.0039H69.1513Z" fill="#212A3E"/>
<path d="M84.4894 25.9859V39.8224H82.1478V25.9859H84.4894Z" fill="#212A3E"/>
<path d="M90.8367 34.0217V39.8224H88.4951V25.9859H98.6064V28.2919H90.8367V31.7156H98.0742V34.0217H90.8367Z" fill="#212A3E"/>
<path d="M109.858 28.2919V39.8224H107.481V28.2919H102.621V25.9859H114.719V28.2919H109.858Z" fill="#212A3E"/>
</svg>
